<mxfile host="65bd71144e">
    <diagram id="cSTTee1SxJR1csSZnObL" name="Page-1">
        <mxGraphModel dx="1627" dy="1248" grid="1" gridSize="10" guides="1" tooltips="1" connect="1" arrows="1" fold="1" page="1" pageScale="1" pageWidth="1000" pageHeight="1200" math="0" shadow="0">
            <root>
                <mxCell id="0"/>
                <mxCell id="1" parent="0"/>
                <mxCell id="LNsYzHEbZUKXHE6bOk_S-13" value="&lt;font style=&quot;font-size: 36px;&quot;&gt;Pikodex&lt;/font&gt;" style="rounded=1;whiteSpace=wrap;html=1;" vertex="1" parent="1">
                    <mxGeometry x="40" y="40" width="920" height="160" as="geometry"/>
                </mxCell>
                <mxCell id="LNsYzHEbZUKXHE6bOk_S-16" value="Item 2" style="text;strokeColor=none;fillColor=none;align=left;verticalAlign=middle;spacingLeft=4;spacingRight=4;overflow=hidden;points=[[0,0.5],[1,0.5]];portConstraint=eastwest;rotatable=0;whiteSpace=wrap;html=1;fontSize=36;" vertex="1" parent="1">
                    <mxGeometry x="40" y="390" width="200" height="10" as="geometry"/>
                </mxCell>
                <mxCell id="LNsYzHEbZUKXHE6bOk_S-18" value="" style="rounded=0;whiteSpace=wrap;html=1;fontSize=36;rotation=-90;" vertex="1" parent="1">
                    <mxGeometry x="-280.39" y="560.41" width="881.1" height="240.3" as="geometry"/>
                </mxCell>
                <mxCell id="LNsYzHEbZUKXHE6bOk_S-22" value="Image" style="whiteSpace=wrap;html=1;aspect=fixed;fontSize=36;" vertex="1" parent="1">
                    <mxGeometry x="103.13" y="280" width="120" height="120" as="geometry"/>
                </mxCell>
                <mxCell id="LNsYzHEbZUKXHE6bOk_S-27" value="Image" style="whiteSpace=wrap;html=1;aspect=fixed;fontSize=36;" vertex="1" parent="1">
                    <mxGeometry x="101.25999999999999" y="560" width="120" height="120" as="geometry"/>
                </mxCell>
                <mxCell id="LNsYzHEbZUKXHE6bOk_S-28" value="Image" style="whiteSpace=wrap;html=1;aspect=fixed;fontSize=36;" vertex="1" parent="1">
                    <mxGeometry x="100.16000000000001" y="840" width="120" height="120" as="geometry"/>
                </mxCell>
                <mxCell id="LNsYzHEbZUKXHE6bOk_S-32" value="Pikomon" style="swimlane;fontStyle=0;childLayout=stackLayout;horizontal=1;startSize=30;horizontalStack=0;resizeParent=1;resizeParentMax=0;resizeLast=0;collapsible=1;marginBottom=0;whiteSpace=wrap;html=1;fontSize=19;" vertex="1" parent="1">
                    <mxGeometry x="103.13" y="420" width="120" height="120" as="geometry"/>
                </mxCell>
                <mxCell id="LNsYzHEbZUKXHE6bOk_S-33" value="Info:" style="text;strokeColor=none;fillColor=none;align=left;verticalAlign=middle;spacingLeft=4;spacingRight=4;overflow=hidden;points=[[0,0.5],[1,0.5]];portConstraint=eastwest;rotatable=0;whiteSpace=wrap;html=1;fontSize=19;" vertex="1" parent="LNsYzHEbZUKXHE6bOk_S-32">
                    <mxGeometry y="30" width="120" height="30" as="geometry"/>
                </mxCell>
                <mxCell id="LNsYzHEbZUKXHE6bOk_S-34" value="Info:" style="text;strokeColor=none;fillColor=none;align=left;verticalAlign=middle;spacingLeft=4;spacingRight=4;overflow=hidden;points=[[0,0.5],[1,0.5]];portConstraint=eastwest;rotatable=0;whiteSpace=wrap;html=1;fontSize=19;" vertex="1" parent="LNsYzHEbZUKXHE6bOk_S-32">
                    <mxGeometry y="60" width="120" height="30" as="geometry"/>
                </mxCell>
                <mxCell id="LNsYzHEbZUKXHE6bOk_S-35" value="Info:" style="text;strokeColor=none;fillColor=none;align=left;verticalAlign=middle;spacingLeft=4;spacingRight=4;overflow=hidden;points=[[0,0.5],[1,0.5]];portConstraint=eastwest;rotatable=0;whiteSpace=wrap;html=1;fontSize=19;" vertex="1" parent="LNsYzHEbZUKXHE6bOk_S-32">
                    <mxGeometry y="90" width="120" height="30" as="geometry"/>
                </mxCell>
                <mxCell id="LNsYzHEbZUKXHE6bOk_S-36" value="Pikomon" style="swimlane;fontStyle=0;childLayout=stackLayout;horizontal=1;startSize=30;horizontalStack=0;resizeParent=1;resizeParentMax=0;resizeLast=0;collapsible=1;marginBottom=0;whiteSpace=wrap;html=1;fontSize=19;" vertex="1" parent="1">
                    <mxGeometry x="100.16" y="980" width="120" height="120" as="geometry"/>
                </mxCell>
                <mxCell id="LNsYzHEbZUKXHE6bOk_S-37" value="Info:" style="text;strokeColor=none;fillColor=none;align=left;verticalAlign=middle;spacingLeft=4;spacingRight=4;overflow=hidden;points=[[0,0.5],[1,0.5]];portConstraint=eastwest;rotatable=0;whiteSpace=wrap;html=1;fontSize=19;" vertex="1" parent="LNsYzHEbZUKXHE6bOk_S-36">
                    <mxGeometry y="30" width="120" height="30" as="geometry"/>
                </mxCell>
                <mxCell id="LNsYzHEbZUKXHE6bOk_S-38" value="Info:" style="text;strokeColor=none;fillColor=none;align=left;verticalAlign=middle;spacingLeft=4;spacingRight=4;overflow=hidden;points=[[0,0.5],[1,0.5]];portConstraint=eastwest;rotatable=0;whiteSpace=wrap;html=1;fontSize=19;" vertex="1" parent="LNsYzHEbZUKXHE6bOk_S-36">
                    <mxGeometry y="60" width="120" height="30" as="geometry"/>
                </mxCell>
                <mxCell id="LNsYzHEbZUKXHE6bOk_S-39" value="Info:" style="text;strokeColor=none;fillColor=none;align=left;verticalAlign=middle;spacingLeft=4;spacingRight=4;overflow=hidden;points=[[0,0.5],[1,0.5]];portConstraint=eastwest;rotatable=0;whiteSpace=wrap;html=1;fontSize=19;" vertex="1" parent="LNsYzHEbZUKXHE6bOk_S-36">
                    <mxGeometry y="90" width="120" height="30" as="geometry"/>
                </mxCell>
                <mxCell id="LNsYzHEbZUKXHE6bOk_S-40" value="Pikomon" style="swimlane;fontStyle=0;childLayout=stackLayout;horizontal=1;startSize=30;horizontalStack=0;resizeParent=1;resizeParentMax=0;resizeLast=0;collapsible=1;marginBottom=0;whiteSpace=wrap;html=1;fontSize=19;" vertex="1" parent="1">
                    <mxGeometry x="100.16" y="700" width="120" height="120" as="geometry"/>
                </mxCell>
                <mxCell id="LNsYzHEbZUKXHE6bOk_S-41" value="Info:" style="text;strokeColor=none;fillColor=none;align=left;verticalAlign=middle;spacingLeft=4;spacingRight=4;overflow=hidden;points=[[0,0.5],[1,0.5]];portConstraint=eastwest;rotatable=0;whiteSpace=wrap;html=1;fontSize=19;" vertex="1" parent="LNsYzHEbZUKXHE6bOk_S-40">
                    <mxGeometry y="30" width="120" height="30" as="geometry"/>
                </mxCell>
                <mxCell id="LNsYzHEbZUKXHE6bOk_S-42" value="Info:" style="text;strokeColor=none;fillColor=none;align=left;verticalAlign=middle;spacingLeft=4;spacingRight=4;overflow=hidden;points=[[0,0.5],[1,0.5]];portConstraint=eastwest;rotatable=0;whiteSpace=wrap;html=1;fontSize=19;" vertex="1" parent="LNsYzHEbZUKXHE6bOk_S-40">
                    <mxGeometry y="60" width="120" height="30" as="geometry"/>
                </mxCell>
                <mxCell id="LNsYzHEbZUKXHE6bOk_S-43" value="Info:" style="text;strokeColor=none;fillColor=none;align=left;verticalAlign=middle;spacingLeft=4;spacingRight=4;overflow=hidden;points=[[0,0.5],[1,0.5]];portConstraint=eastwest;rotatable=0;whiteSpace=wrap;html=1;fontSize=19;" vertex="1" parent="LNsYzHEbZUKXHE6bOk_S-40">
                    <mxGeometry y="90" width="120" height="30" as="geometry"/>
                </mxCell>
                <mxCell id="LNsYzHEbZUKXHE6bOk_S-90" value="Item 2" style="text;strokeColor=none;fillColor=none;align=left;verticalAlign=middle;spacingLeft=4;spacingRight=4;overflow=hidden;points=[[0,0.5],[1,0.5]];portConstraint=eastwest;rotatable=0;whiteSpace=wrap;html=1;fontSize=36;" vertex="1" parent="1">
                    <mxGeometry x="720.39" y="390" width="200" height="10" as="geometry"/>
                </mxCell>
                <mxCell id="LNsYzHEbZUKXHE6bOk_S-91" value="" style="rounded=0;whiteSpace=wrap;html=1;fontSize=36;rotation=-90;" vertex="1" parent="1">
                    <mxGeometry x="400" y="560.41" width="881.1" height="240.3" as="geometry"/>
                </mxCell>
                <mxCell id="LNsYzHEbZUKXHE6bOk_S-92" value="Image" style="whiteSpace=wrap;html=1;aspect=fixed;fontSize=36;" vertex="1" parent="1">
                    <mxGeometry x="783.52" y="280" width="120" height="120" as="geometry"/>
                </mxCell>
                <mxCell id="LNsYzHEbZUKXHE6bOk_S-93" value="Image" style="whiteSpace=wrap;html=1;aspect=fixed;fontSize=36;" vertex="1" parent="1">
                    <mxGeometry x="781.65" y="560" width="120" height="120" as="geometry"/>
                </mxCell>
                <mxCell id="LNsYzHEbZUKXHE6bOk_S-94" value="Image" style="whiteSpace=wrap;html=1;aspect=fixed;fontSize=36;" vertex="1" parent="1">
                    <mxGeometry x="780.55" y="840" width="120" height="120" as="geometry"/>
                </mxCell>
                <mxCell id="LNsYzHEbZUKXHE6bOk_S-95" value="Pikomon" style="swimlane;fontStyle=0;childLayout=stackLayout;horizontal=1;startSize=30;horizontalStack=0;resizeParent=1;resizeParentMax=0;resizeLast=0;collapsible=1;marginBottom=0;whiteSpace=wrap;html=1;fontSize=19;" vertex="1" parent="1">
                    <mxGeometry x="783.52" y="420" width="120" height="120" as="geometry"/>
                </mxCell>
                <mxCell id="LNsYzHEbZUKXHE6bOk_S-96" value="Info:" style="text;strokeColor=none;fillColor=none;align=left;verticalAlign=middle;spacingLeft=4;spacingRight=4;overflow=hidden;points=[[0,0.5],[1,0.5]];portConstraint=eastwest;rotatable=0;whiteSpace=wrap;html=1;fontSize=19;" vertex="1" parent="LNsYzHEbZUKXHE6bOk_S-95">
                    <mxGeometry y="30" width="120" height="30" as="geometry"/>
                </mxCell>
                <mxCell id="LNsYzHEbZUKXHE6bOk_S-97" value="Info:" style="text;strokeColor=none;fillColor=none;align=left;verticalAlign=middle;spacingLeft=4;spacingRight=4;overflow=hidden;points=[[0,0.5],[1,0.5]];portConstraint=eastwest;rotatable=0;whiteSpace=wrap;html=1;fontSize=19;" vertex="1" parent="LNsYzHEbZUKXHE6bOk_S-95">
                    <mxGeometry y="60" width="120" height="30" as="geometry"/>
                </mxCell>
                <mxCell id="LNsYzHEbZUKXHE6bOk_S-98" value="Info:" style="text;strokeColor=none;fillColor=none;align=left;verticalAlign=middle;spacingLeft=4;spacingRight=4;overflow=hidden;points=[[0,0.5],[1,0.5]];portConstraint=eastwest;rotatable=0;whiteSpace=wrap;html=1;fontSize=19;" vertex="1" parent="LNsYzHEbZUKXHE6bOk_S-95">
                    <mxGeometry y="90" width="120" height="30" as="geometry"/>
                </mxCell>
                <mxCell id="LNsYzHEbZUKXHE6bOk_S-99" value="Pikomon" style="swimlane;fontStyle=0;childLayout=stackLayout;horizontal=1;startSize=30;horizontalStack=0;resizeParent=1;resizeParentMax=0;resizeLast=0;collapsible=1;marginBottom=0;whiteSpace=wrap;html=1;fontSize=19;" vertex="1" parent="1">
                    <mxGeometry x="780.55" y="980" width="120" height="120" as="geometry"/>
                </mxCell>
                <mxCell id="LNsYzHEbZUKXHE6bOk_S-100" value="Info:" style="text;strokeColor=none;fillColor=none;align=left;verticalAlign=middle;spacingLeft=4;spacingRight=4;overflow=hidden;points=[[0,0.5],[1,0.5]];portConstraint=eastwest;rotatable=0;whiteSpace=wrap;html=1;fontSize=19;" vertex="1" parent="LNsYzHEbZUKXHE6bOk_S-99">
                    <mxGeometry y="30" width="120" height="30" as="geometry"/>
                </mxCell>
                <mxCell id="LNsYzHEbZUKXHE6bOk_S-101" value="Info:" style="text;strokeColor=none;fillColor=none;align=left;verticalAlign=middle;spacingLeft=4;spacingRight=4;overflow=hidden;points=[[0,0.5],[1,0.5]];portConstraint=eastwest;rotatable=0;whiteSpace=wrap;html=1;fontSize=19;" vertex="1" parent="LNsYzHEbZUKXHE6bOk_S-99">
                    <mxGeometry y="60" width="120" height="30" as="geometry"/>
                </mxCell>
                <mxCell id="LNsYzHEbZUKXHE6bOk_S-102" value="Info:" style="text;strokeColor=none;fillColor=none;align=left;verticalAlign=middle;spacingLeft=4;spacingRight=4;overflow=hidden;points=[[0,0.5],[1,0.5]];portConstraint=eastwest;rotatable=0;whiteSpace=wrap;html=1;fontSize=19;" vertex="1" parent="LNsYzHEbZUKXHE6bOk_S-99">
                    <mxGeometry y="90" width="120" height="30" as="geometry"/>
                </mxCell>
                <mxCell id="LNsYzHEbZUKXHE6bOk_S-103" value="Pikomon" style="swimlane;fontStyle=0;childLayout=stackLayout;horizontal=1;startSize=30;horizontalStack=0;resizeParent=1;resizeParentMax=0;resizeLast=0;collapsible=1;marginBottom=0;whiteSpace=wrap;html=1;fontSize=19;" vertex="1" parent="1">
                    <mxGeometry x="780.55" y="700" width="120" height="120" as="geometry"/>
                </mxCell>
                <mxCell id="LNsYzHEbZUKXHE6bOk_S-104" value="Info:" style="text;strokeColor=none;fillColor=none;align=left;verticalAlign=middle;spacingLeft=4;spacingRight=4;overflow=hidden;points=[[0,0.5],[1,0.5]];portConstraint=eastwest;rotatable=0;whiteSpace=wrap;html=1;fontSize=19;" vertex="1" parent="LNsYzHEbZUKXHE6bOk_S-103">
                    <mxGeometry y="30" width="120" height="30" as="geometry"/>
                </mxCell>
                <mxCell id="LNsYzHEbZUKXHE6bOk_S-105" value="Info:" style="text;strokeColor=none;fillColor=none;align=left;verticalAlign=middle;spacingLeft=4;spacingRight=4;overflow=hidden;points=[[0,0.5],[1,0.5]];portConstraint=eastwest;rotatable=0;whiteSpace=wrap;html=1;fontSize=19;" vertex="1" parent="LNsYzHEbZUKXHE6bOk_S-103">
                    <mxGeometry y="60" width="120" height="30" as="geometry"/>
                </mxCell>
                <mxCell id="LNsYzHEbZUKXHE6bOk_S-106" value="Info:" style="text;strokeColor=none;fillColor=none;align=left;verticalAlign=middle;spacingLeft=4;spacingRight=4;overflow=hidden;points=[[0,0.5],[1,0.5]];portConstraint=eastwest;rotatable=0;whiteSpace=wrap;html=1;fontSize=19;" vertex="1" parent="LNsYzHEbZUKXHE6bOk_S-103">
                    <mxGeometry y="90" width="120" height="30" as="geometry"/>
                </mxCell>
                <mxCell id="LNsYzHEbZUKXHE6bOk_S-107" value="Item 2" style="text;strokeColor=none;fillColor=none;align=left;verticalAlign=middle;spacingLeft=4;spacingRight=4;overflow=hidden;points=[[0,0.5],[1,0.5]];portConstraint=eastwest;rotatable=0;whiteSpace=wrap;html=1;fontSize=36;" vertex="1" parent="1">
                    <mxGeometry x="379.39" y="390" width="200" height="10" as="geometry"/>
                </mxCell>
                <mxCell id="LNsYzHEbZUKXHE6bOk_S-108" value="" style="rounded=0;whiteSpace=wrap;html=1;fontSize=36;rotation=-90;" vertex="1" parent="1">
                    <mxGeometry x="59" y="560.41" width="881.1" height="240.3" as="geometry"/>
                </mxCell>
                <mxCell id="LNsYzHEbZUKXHE6bOk_S-109" value="Image" style="whiteSpace=wrap;html=1;aspect=fixed;fontSize=36;" vertex="1" parent="1">
                    <mxGeometry x="442.52" y="280" width="120" height="120" as="geometry"/>
                </mxCell>
                <mxCell id="LNsYzHEbZUKXHE6bOk_S-110" value="Image" style="whiteSpace=wrap;html=1;aspect=fixed;fontSize=36;" vertex="1" parent="1">
                    <mxGeometry x="440.65" y="560" width="120" height="120" as="geometry"/>
                </mxCell>
                <mxCell id="LNsYzHEbZUKXHE6bOk_S-111" value="Image" style="whiteSpace=wrap;html=1;aspect=fixed;fontSize=36;" vertex="1" parent="1">
                    <mxGeometry x="439.55" y="840" width="120" height="120" as="geometry"/>
                </mxCell>
                <mxCell id="LNsYzHEbZUKXHE6bOk_S-112" value="Pikomon" style="swimlane;fontStyle=0;childLayout=stackLayout;horizontal=1;startSize=30;horizontalStack=0;resizeParent=1;resizeParentMax=0;resizeLast=0;collapsible=1;marginBottom=0;whiteSpace=wrap;html=1;fontSize=19;" vertex="1" parent="1">
                    <mxGeometry x="442.52" y="420" width="120" height="120" as="geometry"/>
                </mxCell>
                <mxCell id="LNsYzHEbZUKXHE6bOk_S-113" value="Info:" style="text;strokeColor=none;fillColor=none;align=left;verticalAlign=middle;spacingLeft=4;spacingRight=4;overflow=hidden;points=[[0,0.5],[1,0.5]];portConstraint=eastwest;rotatable=0;whiteSpace=wrap;html=1;fontSize=19;" vertex="1" parent="LNsYzHEbZUKXHE6bOk_S-112">
                    <mxGeometry y="30" width="120" height="30" as="geometry"/>
                </mxCell>
                <mxCell id="LNsYzHEbZUKXHE6bOk_S-114" value="Info:" style="text;strokeColor=none;fillColor=none;align=left;verticalAlign=middle;spacingLeft=4;spacingRight=4;overflow=hidden;points=[[0,0.5],[1,0.5]];portConstraint=eastwest;rotatable=0;whiteSpace=wrap;html=1;fontSize=19;" vertex="1" parent="LNsYzHEbZUKXHE6bOk_S-112">
                    <mxGeometry y="60" width="120" height="30" as="geometry"/>
                </mxCell>
                <mxCell id="LNsYzHEbZUKXHE6bOk_S-115" value="Info:" style="text;strokeColor=none;fillColor=none;align=left;verticalAlign=middle;spacingLeft=4;spacingRight=4;overflow=hidden;points=[[0,0.5],[1,0.5]];portConstraint=eastwest;rotatable=0;whiteSpace=wrap;html=1;fontSize=19;" vertex="1" parent="LNsYzHEbZUKXHE6bOk_S-112">
                    <mxGeometry y="90" width="120" height="30" as="geometry"/>
                </mxCell>
                <mxCell id="LNsYzHEbZUKXHE6bOk_S-116" value="Pikomon" style="swimlane;fontStyle=0;childLayout=stackLayout;horizontal=1;startSize=30;horizontalStack=0;resizeParent=1;resizeParentMax=0;resizeLast=0;collapsible=1;marginBottom=0;whiteSpace=wrap;html=1;fontSize=19;" vertex="1" parent="1">
                    <mxGeometry x="439.54999999999995" y="980" width="120" height="120" as="geometry"/>
                </mxCell>
                <mxCell id="LNsYzHEbZUKXHE6bOk_S-117" value="Info:" style="text;strokeColor=none;fillColor=none;align=left;verticalAlign=middle;spacingLeft=4;spacingRight=4;overflow=hidden;points=[[0,0.5],[1,0.5]];portConstraint=eastwest;rotatable=0;whiteSpace=wrap;html=1;fontSize=19;" vertex="1" parent="LNsYzHEbZUKXHE6bOk_S-116">
                    <mxGeometry y="30" width="120" height="30" as="geometry"/>
                </mxCell>
                <mxCell id="LNsYzHEbZUKXHE6bOk_S-118" value="Info:" style="text;strokeColor=none;fillColor=none;align=left;verticalAlign=middle;spacingLeft=4;spacingRight=4;overflow=hidden;points=[[0,0.5],[1,0.5]];portConstraint=eastwest;rotatable=0;whiteSpace=wrap;html=1;fontSize=19;" vertex="1" parent="LNsYzHEbZUKXHE6bOk_S-116">
                    <mxGeometry y="60" width="120" height="30" as="geometry"/>
                </mxCell>
                <mxCell id="LNsYzHEbZUKXHE6bOk_S-119" value="Info:" style="text;strokeColor=none;fillColor=none;align=left;verticalAlign=middle;spacingLeft=4;spacingRight=4;overflow=hidden;points=[[0,0.5],[1,0.5]];portConstraint=eastwest;rotatable=0;whiteSpace=wrap;html=1;fontSize=19;" vertex="1" parent="LNsYzHEbZUKXHE6bOk_S-116">
                    <mxGeometry y="90" width="120" height="30" as="geometry"/>
                </mxCell>
                <mxCell id="LNsYzHEbZUKXHE6bOk_S-120" value="Pikomon" style="swimlane;fontStyle=0;childLayout=stackLayout;horizontal=1;startSize=30;horizontalStack=0;resizeParent=1;resizeParentMax=0;resizeLast=0;collapsible=1;marginBottom=0;whiteSpace=wrap;html=1;fontSize=19;" vertex="1" parent="1">
                    <mxGeometry x="439.54999999999995" y="700" width="120" height="120" as="geometry"/>
                </mxCell>
                <mxCell id="LNsYzHEbZUKXHE6bOk_S-121" value="Info:" style="text;strokeColor=none;fillColor=none;align=left;verticalAlign=middle;spacingLeft=4;spacingRight=4;overflow=hidden;points=[[0,0.5],[1,0.5]];portConstraint=eastwest;rotatable=0;whiteSpace=wrap;html=1;fontSize=19;" vertex="1" parent="LNsYzHEbZUKXHE6bOk_S-120">
                    <mxGeometry y="30" width="120" height="30" as="geometry"/>
                </mxCell>
                <mxCell id="LNsYzHEbZUKXHE6bOk_S-122" value="Info:" style="text;strokeColor=none;fillColor=none;align=left;verticalAlign=middle;spacingLeft=4;spacingRight=4;overflow=hidden;points=[[0,0.5],[1,0.5]];portConstraint=eastwest;rotatable=0;whiteSpace=wrap;html=1;fontSize=19;" vertex="1" parent="LNsYzHEbZUKXHE6bOk_S-120">
                    <mxGeometry y="60" width="120" height="30" as="geometry"/>
                </mxCell>
                <mxCell id="LNsYzHEbZUKXHE6bOk_S-123" value="Info:" style="text;strokeColor=none;fillColor=none;align=left;verticalAlign=middle;spacingLeft=4;spacingRight=4;overflow=hidden;points=[[0,0.5],[1,0.5]];portConstraint=eastwest;rotatable=0;whiteSpace=wrap;html=1;fontSize=19;" vertex="1" parent="LNsYzHEbZUKXHE6bOk_S-120">
                    <mxGeometry y="90" width="120" height="30" as="geometry"/>
                </mxCell>
                <mxCell id="LNsYzHEbZUKXHE6bOk_S-124" value="Actor" style="shape=umlActor;verticalLabelPosition=bottom;verticalAlign=top;html=1;outlineConnect=0;fontSize=19;" vertex="1" parent="1">
                    <mxGeometry x="145.16" y="90" width="30" height="60" as="geometry"/>
                </mxCell>
                <mxCell id="LNsYzHEbZUKXHE6bOk_S-125" value="Actor" style="shape=umlActor;verticalLabelPosition=bottom;verticalAlign=top;html=1;outlineConnect=0;fontSize=19;" vertex="1" parent="1">
                    <mxGeometry x="828.52" y="90" width="30" height="60" as="geometry"/>
                </mxCell>
            </root>
        </mxGraphModel>
    </diagram>
    <diagram id="5sEJYCU8dxacpfm7VURI" name="Page-2">
        <mxGraphModel dx="976" dy="749" grid="1" gridSize="10" guides="1" tooltips="1" connect="1" arrows="1" fold="1" page="1" pageScale="1" pageWidth="1100" pageHeight="850" math="0" shadow="0">
            <root>
                <mxCell id="0"/>
                <mxCell id="1" parent="0"/>
            </root>
        </mxGraphModel>
    </diagram>
</mxfile>